<svg width="24" height="24" viewBox="0 0 24 24" fill="none" xmlns="http://www.w3.org/2000/svg">
<path d="M17 5.9834C18.5703 5.98343 19.8561 7.19089 19.9863 8.72754H20.2217C21.3262 8.72757 22.2217 9.62299 22.2217 10.7275V13.2725C22.2217 14.377 21.3262 15.2724 20.2217 15.2725H19.9844C19.8453 16.8002 18.564 17.997 17 17.9971H4.99219L4.83789 17.9932C3.3039 17.9154 2.07388 16.6853 1.99609 15.1514L1.99219 14.9971V8.9834L1.99609 8.8291C2.07674 7.24429 3.38734 5.98343 4.99219 5.9834H17ZM4.99219 7.7832C4.3297 7.78324 3.79236 8.32099 3.79199 8.9834V14.9971C3.79206 15.6597 4.32952 16.1972 4.99219 16.1973H17C17.6627 16.1972 18.2001 15.6597 18.2002 14.9971V8.9834C18.1998 8.32099 17.6625 7.78324 17 7.7832H4.99219ZM5.58789 8.69238C6.08483 8.69251 6.48828 9.0958 6.48828 9.59277V14.3896C6.48805 14.8864 6.08469 15.2889 5.58789 15.2891C5.09098 15.2891 4.68773 14.8865 4.6875 14.3896V9.59277C4.6875 9.09572 5.09083 8.69238 5.58789 8.69238ZM8.38867 8.69238C8.88573 8.69238 9.28906 9.09572 9.28906 9.59277V14.3896C9.28883 14.8865 8.88559 15.2891 8.38867 15.2891C7.89184 15.289 7.48851 14.8864 7.48828 14.3896V9.59277C7.48828 9.09578 7.8917 8.69248 8.38867 8.69238ZM11.1826 8.69238C11.6796 8.69242 12.083 9.09574 12.083 9.59277V14.3896C12.0828 14.8865 11.6795 15.289 11.1826 15.2891C10.6857 15.2891 10.2825 14.8865 10.2822 14.3896V9.59277C10.2822 9.09572 10.6856 8.69238 11.1826 8.69238ZM20 13.4727H20.2217C20.3321 13.4726 20.4219 13.3829 20.4219 13.2725V10.7275C20.4219 10.6171 20.3321 10.5274 20.2217 10.5273H20V13.4727Z" fill="currentColor"/>
</svg>
