<svg width="24" height="24" viewBox="0 0 24 24" fill="none" xmlns="http://www.w3.org/2000/svg">
<path d="M19.3163 13.727C19.7346 13.3087 20.4371 13.3792 20.6503 13.9311C21.3682 15.7902 20.9783 17.9791 19.4784 19.479C17.4498 21.5073 14.1605 21.5071 12.1317 19.479L8.03699 15.3842C7.68919 15.0364 7.68914 14.4722 8.03699 14.1245C8.3847 13.777 8.94812 13.777 9.29578 14.1245L13.3905 18.2192C14.7239 19.5522 16.8863 19.5524 18.2196 18.2192C19.1299 17.3087 19.4188 16.0113 19.0858 14.8559C18.9721 14.461 19.0258 14.0177 19.3163 13.727ZM8.91492 7.73677C9.26276 7.38886 9.82694 7.38876 10.1747 7.73677C10.522 8.08452 10.5222 8.64791 10.1747 8.99556L5.78113 13.3901C4.44782 14.7234 4.44801 16.8848 5.78113 18.2182C6.62985 19.0669 7.81366 19.375 8.90613 19.143C9.28599 19.0623 9.69803 19.131 9.97253 19.4057C10.413 19.8467 10.3155 20.5883 9.7196 20.771C7.94123 21.3154 5.92817 20.8848 4.52136 19.478C2.49285 17.4492 2.49266 14.159 4.52136 12.1303L8.91492 7.73677ZM14.2792 3.22701C16.0578 2.68263 18.0714 3.11418 19.4784 4.52095C21.507 6.54963 21.5068 9.83882 19.4784 11.8676L15.0839 16.2622C14.7362 16.6097 14.1719 16.6096 13.8241 16.2622C13.4764 15.9144 13.4763 15.3501 13.8241 15.0024L18.2186 10.6088C19.5519 9.27543 19.552 7.1131 18.2186 5.77974C17.3696 4.93121 16.1845 4.62276 15.0917 4.85493C14.7121 4.9355 14.3007 4.86747 14.0262 4.59322C13.5853 4.15238 13.6829 3.40952 14.2792 3.22701ZM12.0009 10.5161C12.82 10.5165 13.4843 11.1812 13.4843 12.0004C13.4839 12.8194 12.8198 13.4834 12.0009 13.4838C11.1815 13.4838 10.5168 12.8197 10.5165 12.0004C10.5165 11.1809 11.1813 10.5161 12.0009 10.5161ZM4.52136 4.52193C6.55016 2.49313 9.84022 2.49313 11.869 4.52193L16.0682 8.72115C16.4158 9.06867 16.4164 9.63213 16.0692 9.97993C15.7216 10.3278 15.1573 10.3284 14.8094 9.98091L10.6093 5.78072C9.27594 4.44781 7.11442 4.44778 5.78113 5.78072C4.83864 6.7233 4.56286 8.07986 4.953 9.26509C5.08526 9.66726 5.0385 10.1278 4.73914 10.4272C4.33216 10.8341 3.65019 10.7771 3.42273 10.2485C2.60716 8.35253 2.9731 6.07042 4.52136 4.52193Z" fill="currentColor"/>
</svg>
