<svg width="24" height="24" viewBox="0 0 24 24" fill="none" xmlns="http://www.w3.org/2000/svg">
<path d="M12.5148 4.01276C17.7985 4.2806 22.0001 8.64981 22.0001 14.0001L21.9874 14.5147C21.9792 14.6775 21.9672 14.8394 21.9513 15.0001H20.1378C20.1777 14.6722 20.2003 14.3387 20.2003 14.0001C20.2003 9.47133 16.5289 5.79987 12.0001 5.79987C7.47139 5.79987 3.79993 9.47133 3.79993 14.0001C3.79993 14.3387 3.82255 14.6722 3.86243 15.0001H2.04895C2.033 14.8394 2.02107 14.6775 2.01282 14.5147L2.00012 14.0001C2.00012 8.47721 6.47727 4.00006 12.0001 4.00006L12.5148 4.01276Z" fill="currentColor"/>
<path d="M12.0001 8.00006C15.3138 8.00006 18.0001 10.6864 18.0001 14.0001C18.0001 14.3409 17.9698 14.6747 17.9152 15.0001H16.0802C16.1585 14.6795 16.2003 14.3447 16.2003 14.0001C16.2003 11.6805 14.3197 9.79987 12.0001 9.79987C9.68058 9.79993 7.79993 11.6805 7.79993 14.0001C7.79994 14.3447 7.84174 14.6795 7.92004 15.0001H6.08508C6.03048 14.6748 6.00013 14.3409 6.00012 14.0001C6.00012 10.6864 8.68646 8.00012 12.0001 8.00006Z" fill="currentColor"/>
<path d="M7.00061 16.5996L7.40588 16.6113C9.1375 16.7097 10.7685 17.4362 11.9996 18.6436C13.3265 17.3419 15.1193 16.5996 17.0006 16.5996H21.3385L21.4313 16.6045C21.8849 16.6508 22.2389 17.0341 22.2389 17.5C22.2389 17.9659 21.8849 18.3492 21.4313 18.3955L21.3385 18.4004H17.0006L16.6969 18.4082C15.2881 18.4882 13.9675 19.1236 13.025 20.1738L12.8287 20.4053L12.7028 20.5625C12.532 20.7757 12.2738 20.9003 12.0006 20.9004C11.7273 20.9004 11.4683 20.7759 11.2975 20.5625L11.1715 20.4053C10.2211 19.2173 8.81284 18.4939 7.30334 18.4082L7.00061 18.4004H2.64905C2.15199 18.4004 1.74866 17.9971 1.74866 17.5C1.74866 17.0029 2.15199 16.5996 2.64905 16.5996H7.00061Z" fill="currentColor"/>
<circle cx="11.9999" cy="14" r="1" stroke="black" stroke-opacity="0.9" stroke-width="2"/>
</svg>
