<svg width="24" height="24" viewBox="0 0 24 24" fill="none" xmlns="http://www.w3.org/2000/svg">
<path d="M3.43652 3.43677C3.788 3.0853 4.3559 3.0827 4.7041 3.43091L20.5547 19.2825C20.9029 19.6307 20.9003 20.1976 20.5488 20.5491C20.1974 20.9004 19.6304 20.9031 19.2822 20.5549L16.584 17.8567C15.2961 18.5612 13.7918 19.0402 12.0898 19.0403C8.88718 19.0403 6.49589 17.6043 4.88281 16.0999C3.28121 14.606 2.40243 13.007 2.18359 12.5354L2.00781 12.1565L2.18359 11.7776C2.58408 10.9157 3.55139 9.23761 5.12598 7.76196C5.35578 7.54661 5.5996 7.33469 5.85742 7.13013L3.43066 4.70337C3.08274 4.3552 3.08529 3.78818 3.43652 3.43677ZM7.13965 8.41235C6.86312 8.62267 6.60201 8.84532 6.35645 9.07544C5.20692 10.1528 4.42589 11.3658 4.01074 12.1467C4.33828 12.7206 5.03354 13.7791 6.11035 14.7834C7.49543 16.0752 9.46888 17.2405 12.0898 17.2405C13.2424 17.2404 14.296 16.963 15.2451 16.5178L13.7148 14.9875C13.1996 15.2849 12.6025 15.4563 11.9648 15.4563C10.0258 15.4563 8.45326 13.8836 8.45312 11.9446C8.4532 11.307 8.62383 10.7091 8.9209 10.1936L7.13965 8.41235ZM11.8682 4.96021C18.1728 4.96039 21.006 9.82103 21.8105 11.8206L21.9707 12.218L21.7637 12.593C21.2653 13.4933 20.3969 14.7501 19.1895 15.9163L17.915 14.6418C18.8209 13.7712 19.516 12.8372 19.9688 12.0969C19.0911 10.2051 16.6997 6.76018 11.8682 6.76001C11.2858 6.76001 10.7347 6.82397 10.2148 6.94165L8.76562 5.49341C9.69834 5.16131 10.7321 4.96021 11.8682 4.96021ZM10.2949 11.5676C10.2677 11.6888 10.2539 11.8152 10.2539 11.9446C10.254 12.8895 11.0199 13.6565 11.9648 13.6565C12.0941 13.6565 12.2198 13.6408 12.3408 13.6135L10.2949 11.5676ZM11.9648 8.43384C13.9038 8.43397 15.4754 10.0057 15.4756 11.9446C15.4756 12.0279 15.4706 12.1107 15.4648 12.1926L11.7158 8.4436C11.7981 8.43784 11.8811 8.43384 11.9648 8.43384Z" fill="currentColor"/>
</svg>
